# xmcd
#
# Track frame offsets: 
#        150
#        43190
#        68203
#        105773
#        133913
#        165423
#
# Disc length: 2526 seconds
#
# Revision: 4
# Processed by: cddbd v1.5.2PL0 Copyright (c) Steve Scherf et al.
# Submitted via: ExactAudioCopy v1.0b1
#
DISCID=4909dc06
DTITLE=Arne Domnerus, Hallberg, Riedel, Johansen and Erstrand - Jazz at 
DTITLE=the Pawnshop (XRCD) [CD 2)
DYEAR=1976
DGENRE=Jazz
TTITLE0=Lady Be Good
TTITLE1=Here Is That Rainy Day
TTITLE2=Barbados
TTITLE3=How High The Moon
TTITLE4=Take Five
TTITLE5=Everything Happens To Me
EXTD=1977 YEAR: 1976
EXTT0=
EXTT1=
EXTT2=
EXTT3=
EXTT4=
EXTT5=
PLAYORDER=
